<svg width="424" height="663" viewBox="0 0 112 175" xml:space="preserve" xmlns="http://www.w3.org/2000/svg"><path style="fill:#000" d="M104 230c0-3-2-5-5-11a424 424 0 0 0-10-16l-1 3v3l-2-2c-3-3-3-4 0 0l2 3a40 40 0 0 1-7-9c0 1 0 3-1 2v-5h-1v3l-1-1h1c1 2 1 3-1 1l-5-8-1-1v1-1l-1-3-1-2v1l-1 4c0 2 0 2-1 1l-3-8-2-4-1-6v7-2l-1-1v-4 3l-1-1a42 42 0 0 1 2-7l-2 8v2-3a28 28 0 0 1 2-11l-2 1-3 3v2l-1-2v-6l1-4c1-1 1-1 0 0l-5 3 2-2 2-1 1-1c0 1 0 0 0 0 1 0 0 0 0 0h-1v-2l-2-1v-2l-2 5-1 2 3-9-2 1h-2l1-1v-1h1l-1 1 4-2h-2l2-5 1-2-3 5c-3 4-3 4-1 0l1-3-2 1c-2 1-2 1 0 0l4-3v-1l-1-1v-2l-4 4-3 4 3-5 3-4-2 1-2 1v-1l3-5 4-5v1h1c2 0 3-1 6-4 6-4 6-4 1 0-4 3-6 5-8 5h-1v1l-1 1-4 6 5-2h-2l2-2 1-1h-1c-2 0-1 0 1-1 3-1 3-1 1-1h-2l6-2 10-7 3-2c2-3 4-3 7-3h3-3l-7 3-3 2-4 3-1 1-2 2c-1 2-1 2 2-1a250 250 0 0 0 13-9l7 1c2 1 2 0 1-1h-1l2 1h1l-1-1-2-1v-1h1c-1-1-1-1 0 0v1l4 2v1h-1v5l3 4 2-1 1-7v-5 5-1l1-1v3-2l1-4c0-2 0-2 0 0v9l-1 4v5c1 2 1 2 0 0h-1l-1 1h-1v-1l-1-4h-1l-1-1h-1c0-1 0-1 0 0 1 2 1 4 3 5l1 3a96 96 0 0 1-4 17l-1 5-1 3v1l-1 1v-4l1-4v-4c1 1 1 1 1-1l1-3 2-6v-4h-1v-1l-1-1-4-1c-4-1-6-2-8-5l-3-2-2 1c-1 1-1 2 1 3v1l1 1 1 2 6 3h1v1l1 1 2 1v2l1 2v1h-5l-3-1-2-1-3-3-1-1-1-2v-2l-2-1c-2 0-3 2-1 7 1 5 3 8 6 11h1v1l2 1h1l-1-1v-1h1l-1-1h1l1 3 3 9 2 3 1 1 1-1v1h-1l-4 2h-3l-1 1 3-2 2-1h-2l-6 5c-1 2-2 5-1 8l1 2 1-1c2-6 3-7 7-9l2-2h-1l-6 4c-1 2-1 2 0 0l6-5c2-1 3-1 2 1l1 1h1-2l2 2 2 2 2-1a77 77 0 0 0 8-1h2l-2-1-4-4v-8l-1-8v-1c1 0 2 7 1 10v-1c2-2 4-3 7-3s5 0 7 2l1 1v-1c-1-2 0-6 1-7v1l-1 7v7c-2 3-2 4-5 5l-1 1 1 2h10l1-1v-1c1 0 2-1 0-1-1 0-1 0 0 0h1l2-2v-2l-1-5v-1s0-1 0 0l-1-1v-5l-1-1-1-7-3-14 2-2 2-3v-2l-1 1-3 2v2h-2a72 72 0 0 1-2 2v-10c-1-2-2-2-3-1l-2 2 2-2 1-2 1 1 2 2v-1l-1-6 1 1v4l1-1 1-1v2c-1 1 0 3 1 4h1c-1 0-1 0 0 0h2l1-1h1c1-1 0-2-1-2h-1v1-3l2-4 1-1-2 2-1 1v-2h-1l12-7 11-2-4-2-1-1h3l-2-1-3-2h-1 3l-1-1-3-1c-1 0-1 0 0 0 2 0 2 0 1-1l-2-1h-1 1v-1l-3-2-2-3 4-10c5-9 8-13 16-21l10-6h2c3 3 5 12 4 22l-3 16-1 1v-1l1-4v-2l-1 1-2 3-2 3h2l2-1-2 8-1 4-1 2v4l-1 1 1 2v1c0-1 0-1 0 0v1l1 3 1 1 1 1 1 1-4-2-2-1 1 1 2 2h1l1 1 3 3h-1l-1-1 1 3 1 2h-1l-2-2-2-2 2 3 3 8h-1l-2-1h-1l2 2 4 6-1-1h-3l-1-1 1 2 3 6h-1l-2-1h-2c-1-1-1-1 0 0l1 2 2 8v2-1l-2-1v-2 1h-3l1 1v7c0 2 0 3-1 2l-1-2v-1 1l-1 1v3l-1 6v-1 1l-1 1-1-3c0-2 0-2-2 3l-2 4v2l-2 3-2 4v-4l-1-2-1 2c-2 5-4 8-8 12l-1 1v-2l-1 1-5 7-2 2v-5l-1-2-1 3-3 5-2 6v1l-1-4v-3l-2 2c-4 10-4 10-4 15a401 401 0 0 1-1 2zm-4-12-4-5 5 8-1-3zm4-4v-2 5-3zm0-3 2-8 1-3-1-2-1-2h-1v1-2h-1l1 3v1l-1-1v-2l-1-1v-1l-1-1-1-1v-1c0-2-1-1-1 1v6c1 0 1 0 0 0l-1-4v-6h-1l-1-1v1l-1 1v-1l1-2-1-1-1-1-1 1v5c0 3 0 4 2 7l1 1v-1l1-1v8c1 0 2-4 1-6h1a1687 1687 0 0 0 5 13zm1 1v-1 3-2zm-10 0-1-4-1-6-1-8 1 1v2c1 0 1 0 0 0l-1-12 1-1-1 1-1 2v2-6l-1 1v-1c0 1 0 0 0 0v-1l-3 7v1l2-7v-1h-1l1-1v-3l-1 1v-2l-2 5-1 1 2-4v-2l-2 5c-1 2-1 2-1 0v1h-1v-1 1l-1 1 2-5 1-1-1 1h-1v-1l-3 5-1 2 1-2 1-4v-2c2-2 1-2-1 0l-4 7 1 2 3 1v2l1-2v-2c1 0 1 0 0 0v3l2 5 2 3v-9l1-2v8a47 47 0 0 0 4 8l-1-1v-2l1 2 1 2 1 3c-1 0 0 0 0 0v1l4 6h-1zm-4-13-1-2h1l1 2v2l-1-2zm-1 1h1v1l-1-1zm-2-19v-1 2-1zm19 26v-1h-1v1c1-1 0 0 0 0v4-1l1-3zm-2 3c1-2 0-2 0 0v1-1zm10-5 2-4 2-3 2-6v-8c-1-4-3-6-2-2v6l1 3-1-2a70 70 0 0 0-1-4c0 2 0 2-2 1l-1 1h-1v3l-1 4v15l2-4zm-24-1-1-1 1 1v1-1zm-8-1-1-1 1 1c0 1 0 1 0 0zm26-9-1-1-1 3v-1c-1-2-1-4-2-3l2 7 1 2 1-2v-5zm3 2v3-2l1-8h-1v1l-1 1v2l-1-1v-2c-1-1-1-1-1 2l1 5v2l1-2 1-3zm-35 1 1 2-1-2zm46-2 2-4 2-6-1-4-1-2v7l-1-3v-2l-1 3v3-7l-1 6a173 173 0 0 1 0 11l1-2zm-54-8c1 0 0 0 0 0v1h-1v-2c0-2 0-2 0 0l-1 1v-2l-1-1c0 1 0 1 0 0h-1v-1l-1-3c-1-3-1-3-1-1l4 10 1 2 1-2v-2zm71 3h-1 1zm-9-4v-4h-1v6l1-2zm-3 1 1-1 1-2v-3l-2-5-3-2-4-1h1l1 1h1l1 1 1 1 1 2-1-1v1c1 1 3 5 2 6v-1l-2-4v2l1 4 1 2s0-1 0 0zm0-9-2-2v-1l2 4v-1zm-20 5 3-1 1-1h-4l-1 1h-9l-2-1s0-1 0 0l-1-1h-1c0 1 0 0 0 0h-1l7 4 8-1zm11 0h-1l1 1v-1zm24 0h-1v1l1-1zm-10-1c1-4 1-6-2-8l-8-4c-2 0-1 1 2 1 4 1 6 3 7 6l-1-1a9 9 0 0 0-7-4l2 1 4 5c0 2 2 6 3 5v-1zm-11 0c-1-2-1-1-1 0l1 1v-1zm-40-2v-1l-1 1h1zm39 0v-1 1zm-49-4 4-3 4-3 1-1h-3l-5 3-2 3 2-2c2-3 3-4 6-5h1-3c-1 1-2 1 0 0l3-1h3l-1-1-4-1-5 1-5 3-1 1 1-1c2-2 5-4 8-4 4-1 4-1 1-1l-9 3-1 1 1-1 3-2c2 0 2 0 1-1h-1 6l3-1h-2c-3 0-3 0-1-1h3v-1H70l3-1h4-3c-1-1-1-1 1-1h3l-4-1-2-1h3l-1-1-2-2h-1v-1h-7v-1h-1l-1 2-3 5 2-1 7-2 2 1h-2l-2 2h6-3l-3 1-1 1v1h1l3-1c0 1 0 1 0 0-2 0-4 2-5 3v1h2l3-1h1l-3 3c-1 1-3 5-2 6l1-1 3-1 3-2 6-2c-6 2-9 5-9 11v2-2l3-2zm0-2h1c1-1 1-1 0 0h-1zm2-1 2-2 3-1-3 2-2 1zm-6-9h1-1zm-2-3h1-1zm16 17c0-1 0-1 0 0l-1 1 1-1zm17 0 3-1h-5l-4 1h-2 8zm21-1-1-2 1 2 1 1-1-1zm18 0a22 22 0 0 0-4-8l4 2 4 2-1-7-2-2c-5-1-13-2-14 0-1 1 0 1 2 1h5l5 3-2-1c-2-1-9-2-11-1h2l7 2v1l-7-2c-1 0-1 0 0 0 3 1 7 3 9 6l1 2-2-2c-2-3-5-5-7-5s-2 0 1 1l2 1h-4c-2 0-1 0 1 1l4 2 3 1 3 3 1 1v-1zm10-1c0-1 0 0 0 0v1-1zm-26-7v-1l2-4 1-2h-2 1l2-4 1-3 1-4 1-2v6l-1 1h1c1 1 2 0 4-2l3-5v-1l2-2c2-3 2-8 0-10l-2-1 1 1h1-1l-1 1-1 2-1 1 1-1 1-1-1 1v2l-1 1v1c1 0 1 0 0 0l-2 1-1 2h-1l-3 1-2 1h-1l-3 1-3-1c-1-1-1-2-2-1l2 5 1 5v5c0 2 0 2 1 1 1-2 1-2 0 0v3l1-1 2-1-1 1-2 4c0 2 2 3 2 0zm-65-1a18 18 0 0 0 1-2v-6l-1 1v7zm0-3v-1 2-1zm6 0-1 3 1-2v-1zm80-1-1-3-1-2 2-1c3 0 3 0 0-1h-1v1h-2l1 1v1-1c-2-3-4-4-8-2h-1v1l-4 2-2 1h14c1 0 1 1 0 0h-5l-7 1h-2 4l6 1h3l2 1 2 2v-2zm-62 1h-1 1zm0-1h-1 1s1 0 0 0zm27-1h1c1 0 0 0 0 0v1l1-1-2-1-8-1-1 1c-1 0-2 1-1 2h5l5-1zm47-2c0-1 0-1 0 0 0 0 0 1 0 0zm-2-1h-1l1 1v-1zm-5-2-3-3-6-2-5 1-1 2h-1 1l10 1 3 1 2 1 2 1-2-2zm-82-1h1-4 3zm13-1v-1 1c0 1 0 1 0 0zm63-4h-5c-1 1-1 1 1 1a11 11 0 0 1 5 0l-1-1zm15 0-1-1c0-1 0-1 0 0v1l1 1v-1zm-96 0 2-1h-2c-2 0-2-1 1-1 2 0 2 0 0-1h-2l4-1 3-2-2-1h-1l2-1h1c1 0 1 0 0 0h-1l1-1c2-1 1-1-2-1l-2 1 2-1 2-1v-1c-1 0-1 0 0 0v-1h-3l-3 1 4-1 2-2h-3v-1c1 0 1 0 0 0l1 1 1-1h-1l1-1h1-1l-7 6-2 5v6h-1l1 1 4-1zm88 1v-7c1-1-4-7-6-8-1 0-1 0 0 0l1-1h-1l-2-1-1 1 1 1v1l-1 1c0 2 1 2 2 3l-2 1-1 1h5l-4 1 2 1 3 2v3c-2-1-2-1 0 0l4 1zm-81-1 3-1h-5l-1 1h3zm51-6 1-3-1-1h2l2-1h1l2-1 1-1 3-1 1-1 1-1c1 0 0-1 0 0l-1-1h1l2-2v-2l-1-2-3 2c-3 3-5 4-8 4l-5 2v2l-2-1v3l1 3v2h3zm35-1-1-1v1h1zm-61-7v1-1zm63 0-1-1c-2-1-2-1 0 0l1 1zm-83-1c0-1-3-2-4-1l1 1a300 300 0 0 1 3 0zm-1-2h-3 3zm81-3h-1l-1-2-1-1 1 1-1-3-3-3c-2 0-6-2-8-5-3-3-5-3-9-3h-2 2-5l-2 1-1 1 2-1h11l2 2-1-1-5-1h-2l2 1h-1c-4 0-11 3-10 5h1l1-1-1 1v2c-2 1-2 2 0 1s5-2 8-1a58 58 0 0 0 4 1h1v-1l-1-1 2 1-1-1-6-4h-1 5c2 0 3 1 6 4l4 4-2-2-1-1-5-5-7-1h-1 7l4 3 2 2h1l5 4 6 4h2zm-5-5-2-1-2-1-1-1-2-1 4 2h1l3 2h-1zm-1-1h-1c0-1 0-1 0 0h1zm-19-2h-2l-1-1 4 1h-1zm-5-1h1l-1 1v-1zm-37 9 2-2h-3c-1 1-2 0-3-1l-1-1v3c0 1 4 2 5 1zm39 0c2-1 2-3 2-4h-1l-1 1-1 1h-4c1 2 3 2 5 2zm-60-4 1-1-2 1-3 2 4-2zm4 0 1-2-2 2c-3 3-2 3 1 0zm86 2a38 38 0 0 0-5-5l3 2c2 2 2 3 0 1l-1-1 1 2 2 1zm-85-3-1 1-1 1 1-1 1-1zm20 0-2-3-3-4h-4l-5 1-1 1v1c-1 1-1 1 0 0l-1 1c-1 2-1 2 1 1 3-1 3-1 0 0l-2 2h1l3-1h11l-1-1-1-2h1l-1-1 1 2 2 4 2 1-1-2zm54 1v-1l-3-1h-1l4 2zm-4-1-4-4 4 5v-1zm-5-1v-1 2-1zm14-2-1-1 1 2v-1zm-3-2-2-3-1-3-5-4h-7l-6 3-3 1-3 2h1l1 1 3-1h-1l-1 1v-1l-1 1 6-5h5-5c-1 1-1 1 3 1s6 1 9 4l3 3 6 2-2-2zm-8-5v-1 1l1 1-1-1zm4 0-1-1 1 1h1-1zm-2-2v-1l1 1h-1zm-6 7-1-1 1 1zm17-1-1-1v1h1zm-1-2-1-1v1h1zm1-2h-1 1zm-2-1-1-1c-1 0 0 0 0 0l1 1zm-4-8 2-6c0-3-1-3-2-2l-1 1v-3l-6 7v1c0-1 0-1 0 0l1 1h1l1 1c0-1 0-1 0 0v1c1 1 1 1 2-1v1c-1 4-1 3 2-1zm6-2c2-2 3-7 3-7-1-1-3 0-4 2l-1 1c1-1 1-1 0 0l-1 4 1 3v1l2-4zm-11-4 1-3v-2l-1 1h-1v3l-1 2 2-1zm-6-3c3-2 5-3 2-2s-2 1 0-1l4-4h-2 1v-1l1-1v-1l-2 1h-3l-4 1h-2v1c-1 1 0 1 3 1h3l-3 1h-3v3h2l-1 1h2l-1 1-2 1h1l4-1zm2-6h1-1zm16 1 3-5 1-3v-8l-1-10c-1-4-3-4-6-3l-6 5-1 1-1 2h-1l-2 2c-1 1-2 1-1 2l-1 1-4 4-2 4v2l-1 1 1 1c1 1 7 0 9-2h-2l4-2 1-1h-1c-1 0-1 0 0 0l2-2 1-1v1l-3-1a167 167 0 0 0-2-1c1 0 1 0 0 0l-2-1h2l1-1 5-2 2-3c-1 1-1 1 0 0l1-2 1-1 1-1h2c-1 0 0 0 0 0v4l-1 1v1l1-1v1l-1 2-1 3v2l-1 3-1 2-1 2v4l1 1h2l-1 2v1l3-4zm-10-17h1l-1 1v-1zm0 0 3-1h-1l-2 1zm8-8h1-1zm-8 2v-1l-1 1c-1 2-1 1 1 0zm15-7-2-4c-1-1-2-2-4-1s-2 1 0 1h3l3 6 1 1-1-3zM79 201v-1h1l-1 1zm29-24h-2c-1 0-1-1 1-1a79 79 0 0 0 3 1l3 1h2-2l-3-1h-2zm-18 0-2-2h1c1 1 1 2 2 1h5-1l-3 1h-2zm20-1h-1c0-1 0-1 0 0h7c0-1 0-1 0 0h-6zm-31-2 2-1-1 1h-1zm12-1-2-1 2 1c3 2 2 2 0 0zm3 0-4-3 2 1 2 2c1 1 1 1 0 0zm23 0h1c1-1 1-1 0 0h-1zm-29-2h-1 1l1 1-1-1zm25 0h3-3zm-27-4v-1h1l-1 2v1zm28 2 1-1h1l-1 1h-1zm-23-1 1 1h-1v-1zm24-2h1l-1 1v-1zm-32-1v-2 2c1 1 1 1 0 0zm-31-5 1-1v-1 2h-1zm36-12 1-1v1l-1 1v-1zm16-11v-6c1-1 1 0 1 4l-1 2zm-1-2-1-4-1-1 1 1h1v-2c-1 0-1-1 0 0l-1-3v-2l-1 2-1 2v-3l2-2 1 2v1-2l-1-4-1-2 1 1 1 2v-2 3l4-5-2 3-2 5c0 2 0 3 1 2l2-4-1 1-1 4v1l1-1-2 7v3zm-51-2 1-1-1 1zm-1 0 4-5 2-3-4 3c-3 3-3 3-2 1l2-2v-1 1h1l2-2 4-5v-4 1c-1 1-1 1 0 0 1-2 0-2-2 2l-5 4 2-1c1-2 2-3 0-2l1-1h1l1-2 1-2v-1l-1 1-2 3v-1l1-1h-1l1-2v-3h-1l-1-2-2-5-3-11c-2-7-2-12-2-19 0-9 1-13 4-15 2-1 4-1 11 4l12 10 8 6 3 2 6 3 5 2h3l3-1 3 1h4-13l-4-1h-5l1-1h1v5h-3l1 1h-1l-8-10c-4-6-7-9-12-13l-12-8c-5 0-7 5-7 15a74 74 0 0 0 1 3V67c2-8 4-8 10-4 11 7 16 12 20 21l4 6 2 5-3 3-3 3 1 1c1-1 1-1 0 0l-4 2-1 1 2-1-3 2c-2 1-2 1 0 2h1l-4 2c-1 0-1 0 0 0 2 0 1 1-1 1l-2 2-1 1 1-1-1 1-2 2v1l-1 1h-1l-5 7-3 4-2 2-2 2zm9-14c1 0 1 0 0 0v1-1zm-2-5v-1l-1-1v3l1-1zm6-2v-1l-1-1c0-1 0-1 0 0l2 2v-2l-1-1 1 1 2 2-1-2-1-3 1 1 1 2 1-2v-1h1l-4-7-2-1v2l1 2-1-1-2-2v2l-1-1c0-1 0-1 0 0l2 4-2-2c-1-1-1-1 0 0 0 3 2 6 3 8l1 1zm-2-4v-1 2-1zm-3 2-1-2v-2h-1v-1l1 1v-1c-1-4-2-5-4-5-1-1-1-1-1 1 0 3 1 6 3 8s4 2 3 1zm0-3-1-1v1h1zm10-3-1-3c0-2-1-2-2-3h-1l4 7v-1zm4-4-2-1-1-1 3 2c1 0 1 0 0 0zm4-1 1-1h1-1l-4-1h-4v1h1l5 1h1zm-23-2-1-2-2-1 1 4h2v-1zm6 1v-1 1zm-3-1 1-1 1-1h1-1l1-1c0 1 0 1 0 0h-2 1l1-1h-2l1-1c-1 0-1 0 0 0l-1-2-1-1v-1l-1-1v-4l-1-1h1l-1-4v-7l3 2 1 1 2 1h-4l1 1 9 4 2 1-2 1-4 1h-2l1 1 3 2h2l-2 1h-2 2l1 1 3 1h-2l5 2v1l-6-2v1l6 3 2 1-6-1h-1l2 2c2 1 7 2 8 1h1c-2 0-2 0 0-1h1-3l1-1h2-3l2-1c1 0 2-1 0 0v-1l-1-1h-2 3v-1c1 0 1 0 0 0v-1h-1 1l1-1h-1v-1h-1v-4l-1-1s0-1 0 0h-1v-1h1l-1-1-1-2-8-7-1-1c3 2 2 0-3-3s-7-3-8-3c-2 0-4 8-4 16 0 6 1 8 3 12l4 4c1 0 1 0 0 0zm16-5h1-1zM57 71h-2 3v1l-1-1zm-2-2v-1l1 1h-1zm12 27-1 1h1v-1zm-7 0h-1 1zm29-10-3-1h1l1 1h1zm-40-2v1-1zm37 0-1-1v-1h1l1 1c1 0 1 0 0 0l-5-4-4-2-2-2 2 2 3 2 2 2 1 2 2 1zM71 74h-1l-1-1 1 1h1zM51 64c0-1 0-1 0 0zm8 64h1-1zm-5-4 3-3-5 5 2-2zm9-2zm37 0h1v1l-1-1zm10 0 1-1v1h-1zm-38-1 6-4h6-3l-7 3-2 1zm40-2 1-1-1 1-1 1 1-1zm-48 0h1-1zm32-1h1v1l-1-1zm-5 0v-1l1 1h-1zm11 0 3-6v2a657 657 0 0 0-3 4zm12-1 4-3a21 21 0 0 1-4 3zm-43-1 8-1 6 1c1 0 1 0 0 0H73l-4 1 2-1zm26 1v-1 1zm15 0 1-1v1l-1 1v-1zm-17-2v1-1zm13 1 1-3v1l-1 2zm-6-2a154 154 0 0 0 0-14c0 2 1 3 1 1v-3c-1 1-1 1 0 0v-6 3l1 3v-2l1-2v2l-2 6h2c-2 2-2 5-2 9v4l-1-1zm-18 0-2-1 4 1h-2zm-3 0v-1l1 1h-1zm13-2v-2l1 4-1-2zm-22 1h8-9zm21 0-1-2v-1l1 3zm-3-1-1-1h1l1 1h-1zm10-1c0-2 0-2 1-1v1h-1zm4-2 1-1v1l-1 2v-2zm-1-1 1-3v3h-1zm27-1h1c1 0 0 0 0 0h-1zm-2-2h1-1zM98 95l-1-1 1 1 1 1-1-1zm-13 0h1-1zm27-1 2-3v-5h1l-1 5-4 4 2-1zm-19-1-1-1 3 3-2-2zm-1 0c-1-1-2-1-2-3h1l1 3c2 1 2 1 0 0zm26-2-2-2v-1l1 1 1 2c2 1 1 1 0 0zm3-1 3-2 2-2-4 4h-1zm-3 0-1-4-1-1h-2l-3 1 4-2 7-3 2-1c4-2 7-5 13-11 6-7 11-11 12-11l-1 2a149 149 0 0 0-17 17l-4 5v1l-3 3-2 3-4 1zm3-2-1 1 1-1zm0-1s0 1 0 0zm-3 0 1-1v-3l-1 1v1l-1-1v2l1 1c1 0 1 0 0 0zm2-1c0-1 0 0 0 0l-1 1h1v-1zm1-1v-2 1h2v-2c-1-1-4 1-3 2v1-1 1l1 1v-1zm5-4v-1 1h1v-1h1l2-3c1-1 1-2-1 0l-5 3v1l1 1c1 1 1 0 1-1zm-35 8-1-3 1-1v4zm-9-2-2-3c0-1 0-1 0 0l2 2c2 2 2 2 0 1z" transform="translate(-47 -58)"/></svg>